<svg xmlns="http://www.w3.org/2000/svg" width="294.643" height="65.984" viewBox="0 0 294.643 65.984">
  <g id="Group_1402" data-name="Group 1402" transform="translate(-40.014 -288.06)">
    <path id="Path_604" data-name="Path 604" d="M246.564,421.254h46.763v11.524H260.179v15.084h29.054v11.391H260.179v27.5H246.564Z" transform="translate(-206.55 -132.705)" fill="#fff"/>
    <path id="Path_605" data-name="Path 605" d="M323.808,432.381H310.949v-11.7h12.859Zm-12.859,5.784h12.859v48.5H310.949Z" transform="translate(-216.119 -132.62)" fill="#fff"/>
    <path id="Path_606" data-name="Path 606" d="M379.6,443.8q4.763,3.937,4.763,13.059v32.658H371.371v-29.5a13.549,13.549,0,0,0-1.016-5.874q-1.856-3.738-7.066-3.737-6.406,0-8.79,5.472a18.937,18.937,0,0,0-1.237,7.386v26.251h-12.68V441.106h12.28v7.074a21.468,21.468,0,0,1,4.608-5.383,15.96,15.96,0,0,1,9.88-2.936Q374.838,439.86,379.6,443.8Z" transform="translate(-220.523 -135.685)" fill="#fff"/>
    <path id="Path_607" data-name="Path 607" d="M504.881,421.285v13.937H483.15v11.186h20.356V459.8H483.15v26.958H466.1V421.285Z" transform="translate(-239.177 -132.925)" fill="#fff"/>
    <path id="Path_608" data-name="Path 608" d="M534.2,421.285v65.469H517.144V421.285Z" transform="translate(-246.764 -132.925)" fill="#fff"/>
    <path id="Path_609" data-name="Path 609" d="M542.667,435.772V421.285h42.547v14.487H572.376v50.982H555.321V435.772Z" transform="translate(-250.557 -132.925)" fill="#fff"/>
    <g id="Group_704" data-name="Group 704" transform="translate(170.25 288.275)">
      <path id="Path_649" data-name="Path 649" d="M457.358,446.719V421.185H444.5v14.7C449.646,437.307,453.22,440,457.358,446.719Z" transform="translate(-406.217 -421.185)" fill="#fff"/>
      <path id="Path_650" data-name="Path 650" d="M425.061,489.6l1.891-.01a36.489,36.489,0,0,0,3.869-.227c3.106-.35,6.3-1.16,9.57-1.16,3.519,0,6.956.947,10.286,1.252l-.137-24.866a24.871,24.871,0,0,0-25.008-24.733l-1.263.007a24.872,24.872,0,0,0-24.721,25.707C399.995,479.108,411.509,489.67,425.061,489.6Z" transform="translate(-399.535 -423.959)" fill="#fff"/>
      <path id="Path_651" data-name="Path 651" d="M442.142,466.589a15.413,15.413,0,1,1-15.414-15.413A15.414,15.414,0,0,1,442.142,466.589Z" transform="translate(-401.286 -425.642)" fill="#ff4500"/>
      <path id="Path_652" data-name="Path 652" d="M434.616,468.532a6.3,6.3,0,1,1-6.3-6.3A6.3,6.3,0,0,1,434.616,468.532Z" transform="translate(-402.877 -427.286)" fill="#fff"/>
    </g>
  </g>
</svg>
